<?xml version="1.0" encoding="utf-8"?>
<!-- Generator: Adobe Illustrator 27.5.0, SVG Export Plug-In . SVG Version: 6.00 Build 0)  -->
<svg version="1.1" id="Layer_1" xmlns="http://www.w3.org/2000/svg" xmlns:xlink="http://www.w3.org/1999/xlink" x="0px" y="0px"
	 viewBox="0 0 512 512" style="enable-background:new 0 0 512 512;" xml:space="preserve">
<g>
	<path d="M196.42,229.5c2.48,0,4.73-1.49,5.68-3.79c2.53-11.16,8.49-21.25,17.03-28.86c1.42-0.95,1.89-2.84,1.89-4.73
		c-0.12-1.57-1.01-2.99-2.37-3.79L85.22,110.25l85.17-49.68c3.4-1.96,5.55-5.54,5.68-9.46c0.07-3.98-2.13-7.65-5.68-9.46
		l-25.55-14.67c-3.38-1.89-7.5-1.89-10.88,0L19.45,93.22c-3.4,1.96-5.55,5.54-5.68,9.46v131.55c-0.07,3.98,2.13,7.65,5.68,9.46
		L45,258.36c1.71,1.02,3.69,1.52,5.68,1.42c2.8,0.08,5.51-0.94,7.57-2.84c2.04-2.19,3.22-5.05,3.31-8.04v-97.47l132.49,77.6
		C194.8,229.37,195.61,229.53,196.42,229.5z M369.61,395.11c-1.97,0.08-3.9,0.56-5.68,1.42l-85.17,49.21V292.43
		c0-3.31-3.31-6.63-7.1-5.21c-10.78,3.23-22.25,3.39-33.12,0.47c-2.95-0.85-6.03,0.84-6.88,3.79c-0.13,0.46-0.21,0.94-0.22,1.41
		v152.37l-85.17-49.21c-1.71-1.02-3.69-1.52-5.68-1.42c-5.98,0.07-10.82,4.9-10.88,10.88v29.81c-0.07,3.98,2.13,7.66,5.68,9.46
		l114.51,65.77c1.71,1.02,3.69,1.52,5.68,1.42c1.98-0.02,3.92-0.51,5.68-1.42l114.51-65.77c3.4-1.96,5.55-5.54,5.68-9.46v-29.81
		C380.5,400.32,375.29,395.11,369.61,395.11z M327.02,52.57c14.52,0,26.29-11.77,26.29-26.29S341.54,0,327.02,0
		s-26.29,11.77-26.29,26.29S312.51,52.57,327.02,52.57z M399.74,41.04c-14.52,0-26.29,11.77-26.29,26.29s11.77,26.29,26.29,26.29
		s26.29-11.77,26.29-26.29S414.25,41.04,399.74,41.04L399.74,41.04z M471.94,136.68c14.52,0,26.29-11.77,26.29-26.29
		s-11.77-26.29-26.29-26.29s-26.29,11.77-26.29,26.29S457.43,136.68,471.94,136.68z M399.74,126.17
		c-14.52,0-26.29,11.77-26.29,26.29c0,14.52,11.77,26.29,26.29,26.29s26.29-11.77,26.29-26.29
		C426.02,137.94,414.25,126.17,399.74,126.17L399.74,126.17L399.74,126.17z M327.02,221.3c14.52,0,26.29-11.77,26.29-26.29
		c0-14.52-11.77-26.29-26.29-26.29c-14.52,0-26.29,11.77-26.29,26.29C300.73,209.53,312.5,221.3,327.02,221.3L327.02,221.3
		L327.02,221.3z M256.08,262.85c14.52,0,26.29-11.77,26.29-26.29c0-14.52-11.77-26.29-26.29-26.29c-14.52,0-26.29,11.77-26.29,26.29
		C229.79,251.08,241.56,262.86,256.08,262.85L256.08,262.85L256.08,262.85z M471.94,168.73c-14.52,0-26.29,11.77-26.29,26.29
		c0,14.52,11.77,26.29,26.29,26.29s26.29-11.77,26.29-26.29C498.23,180.5,486.46,168.74,471.94,168.73L471.94,168.73z
		 M471.94,251.33c-14.52,0-26.29,11.77-26.29,26.29s11.77,26.29,26.29,26.29s26.29-11.77,26.29-26.29
		C498.23,263.1,486.46,251.33,471.94,251.33L471.94,251.33z"/>
</g>
</svg>
