<?xml version="1.0" encoding="utf-8"?>
<!-- Generator: Adobe Illustrator 23.0.2, SVG Export Plug-In . SVG Version: 6.00 Build 0)  -->
<svg version="1.1" id="Layer_1" xmlns="http://www.w3.org/2000/svg" xmlns:xlink="http://www.w3.org/1999/xlink" x="0px" y="0px"
	 viewBox="0 0 1311.4 720" style="enable-background:new 0 0 1311.4 720;" xml:space="preserve">
<path id="layer1" d="M1138.4,1.3c-1.8,0.8-3.4,1.8-3.7,2.2c-0.2,0.4-0.5,30.9-0.5,67.7c0,62.9-0.1,67.1-1,68.2
	c-0.8,1-2.2,1.4-6.1,1.8c-2.8,0.3-6,0.8-7.1,1.2c-1.1,0.3-3,0.6-4.2,0.6c-2,0-5.1,0.5-19.6,3.2c-2.4,0.5-7,1.3-10.1,1.8
	c-5.5,1-7.4,1.4-22.9,4.8c-3.9,0.9-8.7,2-10.7,2.3c-6.1,1.3-19.8,4.7-29.1,7.3c-2.3,0.6-5.8,1.6-7.7,2.1c-2,0.5-6.4,1.8-9.8,2.8
	c-3.4,1-7.2,2-8.3,2.3c-1.1,0.2-3.2,0.8-4.5,1.2c-1.3,0.4-3.9,1.2-5.6,1.8c-1.8,0.6-6.5,2.1-10.4,3.3c-3.9,1.2-11.8,3.8-17.5,5.8
	c-5.7,2-11.5,3.9-12.8,4.3c-1.3,0.4-2.6,0.8-3,1c-0.3,0.2-1.5,0.7-2.7,1c-1.1,0.4-3.9,1.3-6.2,2.1c-5.2,1.9-6.2,2-6.3,0.2
	c0-0.7-0.1-24.7-0.1-53.3c-0.1-28.6-0.4-52.5-0.7-53.1c-0.8-1.8-5.8-1-9.4,1.5l-1.7,1.1V141v54.4l-1.5,1.4c-0.8,0.8-1.8,1.5-2.3,1.5
	c-0.5,0-2.4,0.7-4.3,1.5c-4.9,2.1-5.4,2.3-9.7,3.9c-2.1,0.7-4.1,1.5-4.5,1.7c-0.3,0.2-2.9,1.3-5.6,2.3c-2.7,1.1-6.9,2.7-9.2,3.7
	s-4.8,2-5.4,2.3c-2.7,1.1-29.3,12.6-31.5,13.6c-1.3,0.6-5.5,2.6-9.5,4.4c-3.9,1.8-7.1,3.3-7.3,3.3c-1.1,0-52.4,25.1-70.1,34.4
	c-13.5,7.1-25.6,13.5-33.2,17.6c-2,1.1-4.8,2.6-6.2,3.4c-1.5,0.8-7.5,4.2-13.6,7.6c-6,3.4-11.2,6-11.7,5.8
	c-1.8-0.7-3.3-12.8-3.3-26.6c0-4.6-0.2-7.1-0.7-7.6c-1-1-4-0.8-6.4,0.4l-2.1,1l-0.3,20c-0.2,16.8-0.4,20.2-1.2,20.9
	c-0.8,0.8-6.9,4.4-14.9,8.8c-1.5,0.8-8.4,4.8-15.5,8.8c-7,4-14.2,8.1-15.9,9c-1.8,0.9-3.5,1.9-3.9,2.2c-0.4,0.3-2.5,1.5-4.6,2.7
	c-2.2,1.2-6.5,3.6-9.5,5.4c-4.9,2.8-21.1,11.9-29.1,16.3c-1.5,0.8-4.2,2.4-6.1,3.4c-1.9,1.1-3.6,2-3.7,2c-0.1,0-1.5,0.8-3.1,1.7
	c-2.6,1.5-7.2,4.1-17.7,9.7c-4.6,2.4-5.9,2.7-6.5,1.4c-0.4-1.2-1.4-9.2-2.1-18.1c-1.7-20.4-2.4-28.4-2.7-30c-0.2-1-0.7-6.8-1.2-12.9
	c-1.1-13.6-1.3-14.6-3-15.8c-1.5-1-4.3-0.6-10,1.3c-2.3,0.8-7.1,2.1-14.6,4.3c-1.8,0.5-3.9,1.1-4.8,1.4c-1.8,0.6-8.7,2.6-19.3,5.6
	c-4.2,1.2-8.9,2.6-10.4,3c-4.8,1.5-15.1,4.5-18.1,5.3c-1.6,0.4-5.4,1.5-8.3,2.4c-2.9,0.9-6.1,1.8-7.1,2.1c-7.4,2-13.2,3.9-13.7,4.5
	c-0.4,0.5-0.5,2.3-0.2,5.2c0.2,2.4,0.7,8.2,1,13c0.4,4.8,0.9,10.9,1.2,13.7c0.9,7.3,3.6,36.7,4.8,51.7c0.4,4.4,0.9,9.7,1.2,11.8
	c0.3,2.3,0.4,4.2,0,4.8c-1,1.8-28,12.8-50.8,20.6c-3.3,1.1-7.8,2.7-10.1,3.5c-2.3,0.8-5.5,1.9-7.3,2.4c-1.7,0.5-6.2,1.9-10.2,3.3
	c-3.9,1.3-7.5,2.4-8,2.4c-0.5,0-3,0.7-5.5,1.5c-4.1,1.4-11,3.3-14.8,4.3c-0.8,0.2-2.5-0.7-5.1-2.6c-10.5-7.7-26.3-13.3-37.7-13.3
	c-2.9,0-5.6-0.2-6.1-0.5c-0.4-0.2-1-3-1.4-6.1c-0.4-3.1-0.8-6.1-0.9-6.5c-0.2-0.5-0.5-3.2-0.8-5.9c-0.3-2.8-1.1-9.4-1.8-14.7
	c-0.7-5.4-1-10-0.8-10.5c0.2-0.5,4.2-4.7,8.8-9.4c11.4-11.6,16.7-18.1,23.2-28.1c3.5-5.5,8.5-14.6,9.7-17.8c0.4-1,1.2-3.3,1.9-5.1
	c3.5-9,5.1-15,7.2-27.6c1.2-6.8,1.4-9.9,1.4-26.5c0-19.5-0.2-22.4-3-36.6c-1.5-7.7-3.2-13.7-4.8-17.4c-0.5-1.1-0.8-2.2-0.8-2.6
	c0-1.6-4.5-10.8-8.2-16.8c-3.6-5.9-11.1-13.9-14.5-15.4c-4.5-2.1-8.7-1-13.6,3.6c-2.7,2.6-10.6,12.1-10.6,12.8
	c0,0.2-1.1,1.8-2.3,3.7c-18.4,27.6-23.7,68.1-16.1,122.7c1.7,12.3,2.4,17.8,2.4,20.5c0,2.7-0.7,3.4-13.9,15.2
	c-31.5,28.2-43.9,40.2-54.2,52.6c-7,8.4-11.1,14.7-15,23.1c-3.5,7.3-6.5,16.5-7.4,22.7c-1,6.4-1.8,10.2-2.3,10.8
	c-0.7,1-36.9,1.1-39.2,0.2c-1.4-0.5-1.4-0.7-0.8-3.5c1.1-5.1-1.2-8.3-7.3-10.7c-2.9-1.1-5.5-0.5-7.7,1.8c-1.7,1.8-1.8,2.2-1.8,5.8
	c0.1,5.7,0.2,5.5-1.9,5.2l-2-0.2l-0.5-4.8c-0.5-5.6-2.1-12.1-3.2-13.4c-0.4-0.5-0.8-1.3-0.8-1.8c0-0.9-5.8-7.8-8-9.5
	c-2.9-2.2-8.6-5.2-12.7-6.5c-6.2-2-14.7-2-21.2,0.2c-6.4,2.1-10.6,4.6-14.9,8.9c-4.6,4.6-6.4,7.8-7.7,13.4c-0.6,2.4-1.4,4.8-1.8,5.2
	c-0.8,0.9-6.9,0.4-15.5-1.4c-9.5-1.8-14.3-2.7-16.3-2.9c-2-0.1-2.1,0-2.3,1.8c-0.1,1.2,0.1,2,0.6,2.1c3.4,1,11.8,2.5,21.6,4
	c5.3,0.8,11.8,2.3,12.8,2.9c2.6,1.7-3.9,2-8.9,0.5c-1.1-0.4-3.7-0.9-5.6-1.1c-3.6-0.5-9-1.7-15.3-3.3c-4.3-1.2-5.4-0.8-5.1,1.7
	c0.2,2.1,0.7,2.3,7.6,3.4c1.8,0.4,4.8,1,6.5,1.4c4.5,1.2,9,2.1,14.6,3.1c6.3,1.1,10.3,1.9,11.1,2.3c0.7,0.4,0.7,1.9,0.1,2.3
	c-0.5,0.3-6.3-0.7-14.4-2.6c-3.1-0.7-7.4-1.7-9.5-2.1c-2.1-0.5-6.4-1.5-9.5-2.3C0.6,498,0,498.1,0,500.8c0,1.6,1.2,2.3,5.1,2.9
	c1.7,0.2,3.9,0.8,5.1,1.2c2,0.8,4.2,1.3,11.3,2.6c1.8,0.4,4.9,1,6.8,1.5c2,0.4,5.8,1.4,8.6,2c2.8,0.7,7.3,1.6,10.1,2.1
	c7.1,1.3,13,2.4,19.8,3.9c3.2,0.7,6.5,1.2,7.4,1.2c1,0,3.1,0.4,4.8,1c2.6,0.8,3.1,1.1,2.9,2.2c-0.2,1.2-0.5,1.3-3.4,1.2
	c-1.8-0.1-5.8-0.7-8.9-1.3c-5.7-1.3-10.4-2.3-18.8-4c-6.9-1.4-16.9-3.7-19-4.4c-1-0.4-2.4-0.6-3-0.6c-0.7,0-2.6-0.4-4.1-0.9
	c-4.9-1.5-14.1-3.9-20.3-5.2l-3.7-0.9l-0.4,1.4c-0.5,2,0.1,3.2,1.7,3.2c0.8,0,3,0.5,4.9,1.2c2,0.6,5.3,1.5,7.4,2.1
	c2.1,0.5,5.2,1.3,6.8,1.8c1.7,0.4,5.5,1.4,8.6,2.1c3.1,0.8,6.9,1.7,8.4,2.1c1.5,0.5,3.3,0.8,3.9,0.8c0.6,0,2.3,0.4,3.7,0.8
	c1.4,0.5,5.3,1.4,8.6,2.1c3.3,0.7,7.5,1.6,9.5,2.1c2,0.4,5.2,1.1,7.1,1.5c4.2,0.8,8.6,2.3,8.6,3c0,0.2-0.7,0.9-1.4,1.4
	c-1.1,0.7-1.9,0.8-3.4,0.4c-1.1-0.3-4.7-1.1-8-1.8c-3.3-0.7-6.7-1.5-7.7-1.8c-1-0.3-4.7-1.2-8.3-2.1c-11.9-2.8-21-5.2-25-6.6
	c-1.4-0.5-2.9-0.8-3.5-0.8c-0.6,0-2.3-0.4-3.9-0.9c-1.5-0.5-5.1-1.5-8.1-2.4c-2.9-0.8-5.9-1.8-6.7-2.1c-2.6-1-3.7-0.7-3.7,1.2
	c0,2,0.8,2.6,5.5,3.9c1.7,0.5,6.4,1.8,10.3,3c3.9,1.2,9.2,2.7,11.6,3.3c2.4,0.7,6.4,1.8,8.6,2.4c8.3,2.3,27.4,7.2,30.9,7.9
	c5.2,1.1,8,2.1,8,3c0,1.5-7.5,11.5-15.9,21c-5.2,5.9-6.1,7.4-6.1,9.9c0,3.7,2.7,3,8.9-2.3c4.2-3.6,20.9-20.3,24-24
	c2.2-2.6,2.4-2.6,19.7,1c12.8,2.7,16.4,3.4,24.1,4.8c13.1,2.3,25.5,4.3,36,5.7c11.3,1.5,11.7,1.7,13.6,5.1c2.1,3.7,5.5,8.9,6.5,10
	c0.4,0.5,2,2.6,3.6,4.5c6.5,8.6,19.9,19,31.2,24.4c3,1.4,5.8,2.6,6.1,2.6c0.3,0,1.4,0.4,2.5,0.8c12.4,5.2,37,7.2,53.7,4.2
	c3.7-0.7,4.9-0.7,5.4-0.1c0.7,0.7,2.2,9.6,3.3,19.1c0.3,2.9,0.8,7.7,1.2,10.7c0.3,2.9,1,7.7,1.5,10.7c1.4,7.9,1.2,22.1-0.4,28.4
	c-4.2,16.7-14.3,27-30.7,31.3c-6.3,1.7-15.2,1.6-20.7-0.1c-6-1.8-9.7-4.5-9.7-6.8c0-1.2,0.4-1.3,4.5-1.7c10.3-1,19.8-8.7,23.5-19.1
	c2.4-6.5,1.5-17.7-1.8-22.8c-3.8-5.9-9.6-10.8-16.5-13.7c-4.2-1.8-5.2-2-10.6-2c-8.6,0-14.7,2.4-20.9,8.1
	c-8.6,8.1-11.8,21.4-8.3,34.7c2.1,7.7,3,10,6.1,14.8c6.4,9.9,17,17.6,29,21c7.8,2.3,14.6,2.7,22.9,1.6c14.1-1.9,24.5-6.9,33.4-16.1
	c8.5-8.9,12.4-18.1,14-32.9c0.9-7.9,0.9-9.5-0.1-19.6c-0.5-6.1-1.5-14.7-2.1-19.3c-0.7-4.6-1.4-10.8-1.8-13.7c-0.4-3-1-7.6-1.4-10.5
	c-0.4-2.8-0.7-5.5-0.5-5.9c0.1-0.4,4.1-2.7,8.9-5.1c4.8-2.3,11.2-6,14.1-8.1c6.7-4.9,14.7-12.7,18.1-17.7c0.5-0.7,1.3-1.9,1.8-2.6
	c0.5-0.7,1.7-2.6,2.6-4.3c2.7-5.2,2.3-5.1,17.9-6.5c24.2-2.1,53.2-5.9,72.8-9.5c2.4-0.5,6.7-1.2,9.5-1.7c2.8-0.5,9.2-1.8,14.3-2.8
	c5.1-1,10.6-2.1,12.2-2.4c1.7-0.2,4-0.8,5.4-1.1c2.4-0.7,13.2-3.1,18.1-4.2c4.3-1,30.6-7.5,37.2-9.3c3.3-0.9,6.9-1.8,8-2.1
	c1.1-0.3,4.5-1.2,7.4-2.1c6.4-1.8,11.2-3.2,13.7-3.9c4.1-1.1,23.9-6.7,29.1-8.3c2.3-0.7,5.5-1.6,7.1-2.1c8-2.2,11.9-3.3,12.1-3.3
	c0.1,0,0.1,0.7,0.1,1.5c0,0.8-0.2,1.5-0.5,1.5c-0.9,0-4.8,8.1-6,12.5c-0.7,2.4-1.2,6.2-1.2,8.3c0,3.9,1.5,10.2,3.2,13.4
	c2.3,4.3,9.2,9.7,15.3,11.8c4.7,1.6,16.3,1.5,22.9-0.4c5.9-1.5,15.5-6.2,20.2-9.8c5.5-4.2,12.7-11.5,15.4-15.8
	c4.9-7.7,5.7-11.4,6.2-29.8c0.3-9.4,0.7-14.9,1.1-15.3c0.4-0.4,2.1-1,3.9-1.5c1.8-0.4,5.2-1.3,7.7-2c2.4-0.7,7.3-1.9,10.7-2.7
	c3.4-0.8,7.5-2,9.2-2.4c1.5-0.4,3.8-0.8,4.9-0.8c2.3,0,2.6,0.9,1.1,4.3c-1.1,2.7-1.1,6,0,7c2.1,1.7,5-1.2,9.3-9.5
	c2.7-5.2,3-5.4,8-6.5c28.8-7,67.8-13,100.5-15.8c5.6-0.5,13.9-1.2,18.4-1.6c11.2-1,71-1,81.4,0c4.3,0.4,12.4,1.1,18.1,1.6
	c14.5,1.2,25.2,2.4,42.9,5.1c8.4,1.2,11.1,1.7,26.5,4.8c5.2,1,10.7,2.1,12.2,2.3c7.5,1.3,47.4,11.5,52.9,13.6
	c0.8,0.3,3.5,1.1,5.9,1.8c8.6,2.6,31.2,10.2,40.8,14c7.4,2.9,8.1,3.2,15.9,6.3c9.7,3.9,22.3,9.3,28.8,12.3c2.8,1.2,7,3.2,9.2,4.3
	c12.7,5.9,35.6,17.5,46.7,23.7c3.1,1.8,7.4,4.1,9.5,5.3c2.1,1.1,4.8,2.7,5.9,3.4c1.1,0.7,2.5,1.5,3,1.7c0.5,0.2,1.7,1,2.7,1.6
	c1,0.7,2.6,1.6,3.6,2.1c2.9,1.6,27.9,17.3,35.2,22.1c3.6,2.4,6.9,4.3,7.3,4.3c0.5,0,0.7-4.8,0.7-15.1V551l-2-1.1
	c-2-1.1-12-7.2-15.2-9.2c-0.9-0.6-2-1.2-2.5-1.5c-0.5-0.2-2.3-1.3-4-2.4c-1.7-1.1-3.3-2-3.4-2c-0.2,0-2.4-1.3-4.9-2.9
	c-2.5-1.6-5.6-3.4-7-4.1c-1.3-0.7-4.9-2.6-8-4.3c-3.1-1.7-7.1-3.9-8.9-4.9c-5.6-3-33.8-17.2-40.1-20.2c-3.3-1.5-7.4-3.4-9.2-4.2
	c-5.6-2.6-17.3-7.7-22.3-9.6c-2.6-1.1-6.8-2.7-9.2-3.7c-9-3.6-25.5-9.7-34.2-12.7c-19.8-6.6-27.8-9-46.1-14
	c-16.9-4.6-42.3-10.2-59.2-13c-3.3-0.5-8-1.4-10.4-1.8c-2.4-0.5-5.5-1-6.8-1.1c-1.3-0.2-5.5-0.7-9.2-1.2
	c-33.1-4.3-54.4-5.6-89.6-5.7c-19.9,0-20.4-0.1-20.4-1.2c0-0.6,0.6-1.5,1.4-1.8c4-2.1,14.9-12.8,19.3-19.1c3.3-4.6,6.4-11.2,7-14.6
	c0.2-1.4,0.9-3.1,1.5-3.8c1-1.2,1.6-1.4,16.1-1.8c17.2-0.6,62.4-0.1,71.2,0.8c3.2,0.3,9.6,0.8,14.4,1.2c15.5,1.2,32.6,3.3,51.7,6.3
	c13.1,2.1,15.2,2.4,30.6,5.6c4.9,1,10.6,2.2,12.8,2.6c4,0.8,27.1,6.7,32.7,8.3c1.8,0.5,4.6,1.3,6.2,1.8c2.7,0.7,6.2,1.7,14.3,4.2
	c1.7,0.5,4.2,1.3,5.6,1.7c3.6,1.1,20.2,6.7,21.7,7.4c0.7,0.3,2.7,1,4.5,1.7c11.8,4.3,31.4,12,38.6,15.2c1.5,0.7,3.2,1.4,3.9,1.7
	c5.9,2.6,7.4,3.2,9.5,4.2c16.1,7.4,22.3,10.4,34.5,16.5c7.8,3.9,14.4,7,14.7,6.7c0.2-0.2,0.4-7,0.3-14.9
	c-0.2-12.1-0.3-14.5-1.1-14.9c-0.8-0.5-9.4-4.6-20.5-9.7c-18.3-8.5-47.8-20.6-66-26.9c-8.4-2.9-26.1-8.7-30.3-9.9
	c-2-0.6-5.3-1.6-7.4-2.2c-2.1-0.7-5.2-1.5-6.8-2c-4.3-1.2-16.1-4.5-19.9-5.4c-1.8-0.4-5-1.2-7.1-1.7c-2.1-0.5-6.2-1.5-9.2-2.1
	c-2.9-0.7-8.8-1.9-13.1-2.7c-4.2-0.8-9.3-1.9-11.3-2.3c-2-0.5-4.8-1-6.2-1.2c-1.5-0.2-2.9-0.5-3.1-0.7c-0.7-0.4,1.2-2.2,5-4.5
	c11.7-7.4,23.4-20,28.1-30.2c1.6-3.6,3.3-9.5,3.3-11.8c0-2.9,1.2-3.8,4.8-3.4c6.7,0.8,23.1,3.5,27.6,4.6c1.3,0.3,6,1.2,10.4,2.1
	c4.4,0.8,8.9,1.7,9.8,2c1,0.3,4.5,1.1,7.7,1.8c5.8,1.3,12.8,3.1,21.7,5.5c2.4,0.7,5.1,1.3,5.9,1.5c1.4,0.3,9.5,2.6,19.3,5.6
	c10.3,3.1,33.4,10.9,44.1,15c6.5,2.4,12.3,4.5,13,4.6c1.2,0.2,1.2-0.2,1.2-14.6v-14.8l-4.2-1.4c-2.3-0.8-4.9-1.7-5.9-2
	c-1-0.3-6.8-2.3-13.1-4.3c-6.2-2.1-13.1-4.3-15.5-5c-10.5-3.2-12.8-3.8-17.1-4.9c-2.6-0.6-4.9-1.3-5.2-1.5c-0.3-0.2-1.7-0.5-3.1-0.8
	c-1.4-0.3-5.2-1.2-8.5-2.1s-7.1-1.8-8.6-2.1c-3.6-0.7-9.6-2.1-10.8-2.6c-0.6-0.2-1.1-0.8-1.1-1.2c0-0.4,1.4-3.5,3.2-6.9
	c8.5-16.5,14.1-33.2,16.2-47.4c0.7-4.6,0.7-4.8,3.4-4.8c1.4,0,5.5,0.6,9,1.2c3.6,0.7,8.7,1.6,11.3,2.1c2.6,0.4,5.8,1.1,7.1,1.4
	c1.3,0.3,5.1,1.1,8.3,1.8c9,2,15.2,3.4,24.2,5.6c4.5,1.1,8.7,2.1,9.3,2.1c1.2,0,1.2-0.2,1.2-14.2c0-10.6-0.2-14.3-0.7-14.7
	c-1-0.8-9.2-2.7-17.7-4.3c-1.8-0.4-6.5-1.3-10.4-2.1c-7.1-1.5-9.1-1.8-20.3-3.5c-3.3-0.5-7.5-1.1-9.2-1.5c-1.7-0.4-5.3-0.9-7.8-1.2
	c-2.7-0.3-5.1-0.9-5.5-1.4c-0.5-0.5-1.4-3.2-2-5.8c-0.5-2.7-1.7-6.8-2.7-9.2c-1.5-3.8-1.6-4.3-0.9-6.8c2.9-10.6,3.7-16.8,3.8-30.3
	l0.1-11.6l5.4-0.2c3-0.1,10.5,0.2,16.6,0.7c6.2,0.5,13.2,1.1,15.5,1.2c4,0.4,11.2,1.1,25.6,3c3.9,0.5,7.8,0.9,8.8,0.9h1.6v-14.3
	c0-16.6,0.7-15.3-7.5-15.8c-2.9-0.2-9-0.8-13.6-1.2c-7.8-0.8-20.8-1.4-47.8-2.4c-11.3-0.4-11.6-0.4-12.9-1.8
	c-0.8-0.8-1.7-2.4-2.1-3.6c-0.4-1.2-1.4-3.4-2.4-5.1c-1-1.5-1.7-3-1.7-3.3c0-0.3-0.4-1-0.7-1.4c-0.4-0.4-1.2-1.7-1.8-2.9
	c-1.5-3-2.4-4.4-3.3-4.9c-0.4-0.2-0.8-0.8-0.8-1.1c0-0.4-1.4-2.6-3.1-4.9c-6.1-8.3-14.1-17.4-23.4-26.5
	c-23.7-23.1-33.6-33.5-34.6-36.3c-0.2-0.5-0.8-1.4-1.3-2.1c-1.5-1.8-5.1-9-6.5-13.1c-1-3.1-1.2-5.3-1.2-13.7
	c-0.1-6.5-0.4-10.6-0.8-11.5C1145-0.4,1142.5-0.5,1138.4,1.3z M1151.3,84.1c1.6,1,5.5,3.3,8.8,5.2c16.6,9.7,28.7,18.7,38.9,28.8
	c7.4,7.5,12.2,13.9,11.4,15.3c-0.3,0.4-5,0.9-14.1,1.3c-7.5,0.3-16.3,0.8-19.6,1.1c-4.8,0.5-6.1,0.4-7.1-0.3c-1.4-1-8.1-9.2-8.1-10
	c0-0.2-0.8-1.5-1.7-2.7c-1.6-2-7.8-13.8-9.3-17.7c-3-7.5-3.8-11.1-3.8-16.5c0-5.2,0.1-5.8,1.6-6.2
	C1148.5,82.4,1149.8,83.2,1151.3,84.1z M1223.3,161.7c1.3,1.5,2,6.3,2.3,16.2c0.5,13.9-0.2,15.9-3.7,10.9c-1-1.4-2.5-3.3-3.5-4.3
	c-6-6.4-10.4-10.9-15.7-16.1c-3.3-3.2-6-6.1-6-6.3c0-1.1,1.6-1.2,13.4-1.2C1219.6,160.9,1222.8,161.1,1223.3,161.7z M1156.5,168.5
	c4,2.6,8.9,5.7,10.9,7c8.1,5.1,17.4,11.4,22.9,15.6c6.4,4.9,16.7,14.6,19,18c0.8,1.1,2.4,3.4,3.6,5.1c1.2,1.7,2.2,3.4,2.2,3.7
	c0,0.3,0.4,0.8,1,1.2c0.5,0.5,0.8,1.5,0.7,2.3l-0.2,1.5l-6.5-0.2c-3.6-0.1-8.3-0.4-10.4-0.7c-2.1-0.3-14.6-0.9-27.6-1.2
	c-16.9-0.5-24-0.9-24.6-1.4c-0.6-0.5-0.8-6.2-0.7-27.6c0-14.8,0.2-27.2,0.4-27.4C1147.8,163.3,1149.7,164,1156.5,168.5z
	 M1133.1,165.7c1.1,0.6,1.1,1.5,1.1,26.6c0,20.9-0.2,26.3-0.8,27.2c-0.8,1-2,1.1-11.5,1.3c-5.8,0.1-14.1,0.5-18.4,0.8
	c-14.3,1.1-29.1,2.3-34.2,3c-2.8,0.3-8.7,1-13.1,1.5c-9.5,1.1-25.1,3.3-38.9,5.6c-3.2,0.5-20.4,3.8-30,5.7
	c-6.5,1.3-20.9,4.5-24.4,5.4c-12.2,3.2-32.3,8-33.2,8c-0.6,0-1.2-0.5-1.4-1.1c-0.5-2,0.1-37.2,0.5-37.6c0.7-0.7,8.9-3.5,23.1-8
	c5.9-1.8,12.1-3.7,13.7-4.3c1.7-0.5,3.8-1.1,4.8-1.4c1-0.3,4.6-1.3,8-2.3c3.4-1,7.8-2.3,9.8-2.8c2-0.5,4.8-1.4,6.2-1.8
	c3.6-1.1,9.4-2.7,11.9-3.2c1.1-0.2,5.2-1.2,8.9-2.2c3.7-1,8.9-2.3,11.3-2.8c2.4-0.6,6.1-1.4,8-1.8c10.5-2.4,14.3-3.3,20.5-4.5
	c3.7-0.7,10.7-2,15.5-3c4.8-0.9,9.8-1.8,11.3-2c1.5-0.2,4.8-0.8,7.4-1.2c10.2-1.8,30.1-4.5,38.6-5.2c1.3-0.1,2.7-0.2,3.2-0.3
	C1131.6,165.1,1132.5,165.4,1133.1,165.7z M916.6,235c0.1,16.4,0.1,18-0.9,19.1c-0.7,0.7-3.3,1.8-6.7,2.8c-3.1,0.8-6.3,1.8-7.1,2.1
	c-0.8,0.3-5.1,1.7-9.5,3c-10.3,3.2-24.6,8-36.3,12.1c-12.4,4.3-13.1,4.6-15.3,5.5c-1,0.4-2,0.8-2.2,0.8s-2.7,0.9-5.6,2
	c-2.9,1.1-9.2,3.6-14,5.4c-8.4,3.2-10.8,4.2-14.9,5.9c-1,0.5-3.5,1.5-5.6,2.3c-8.9,3.4-36.7,15.3-46.1,19.7
	c-1.6,0.8-4.2,1.9-5.6,2.6c-1.5,0.7-5.4,2.5-8.6,4c-3.3,1.5-7.5,3.6-9.5,4.5c-2,0.9-6.7,3.2-10.5,5c-3.9,1.8-7.4,3.3-7.8,3.3
	c-0.5,0-1.5-0.7-2.4-1.7c-4.8-5.2-7.5-8.6-9.5-11.8c-2.8-4.6-2.6-5,4-8.4c2.6-1.4,7.1-3.7,9.9-5.2c13.4-7.4,66.9-34.3,81.1-41
	c11.2-5.2,20-9.2,20.2-9.2c0.1,0,2.3-1,4.9-2.1c2.6-1.2,6-2.8,7.6-3.5c1.7-0.8,7.1-3.2,12.2-5.4c5.1-2.1,9.7-4.2,10.4-4.5
	c0.7-0.3,3.9-1.6,7.1-3c3.3-1.4,8.1-3.3,10.7-4.4c2.6-1.1,7.4-3,10.7-4.2c3.3-1.2,6.2-2.5,6.5-2.7c0.4-0.2,1.5-0.7,2.7-1
	c1.1-0.4,4.9-1.7,8.3-3.1c3.4-1.3,8-3,10.1-3.8c2.1-0.8,4.8-1.8,5.9-2.3c1.1-0.5,2.9-0.9,3.9-0.8l1.8,0.1L916.6,235z M1133,245.7
	l1.3,0.9v24.3c0,20.2-0.1,24.4-0.8,25c-0.7,0.5-1.7,0.4-4.6-0.8c-8.1-3.3-14.1-4.5-23.8-4.5c-10.9,0-18.5,1.5-29.6,5.8
	c-3.7,1.4-4.5,1.5-27.9,2.2c-13.3,0.4-27.5,1.1-31.8,1.4c-4.2,0.4-11.1,1-15.2,1.2c-9.2,0.7-22.9,2.1-27.6,3c-2,0.3-5.9,0.8-8.9,1.2
	c-7.3,0.8-31.6,4.5-33.1,5.1c-2.4,0.8-2.5,0-2.5-19.9c0-11.8,0.2-19.3,0.5-19.7c0.6-0.6,20.2-5.4,27.9-6.8c2.3-0.5,6.7-1.4,9.8-2.1
	c5.6-1.2,8.2-1.8,21.7-4.1c3.9-0.7,7.5-1.4,8-1.5c1.4-0.4,14.6-2.4,29.4-4.5c32.5-4.4,64.3-6.8,94.5-7
	C1129.7,244.7,1131.8,244.9,1133,245.7z M1181.2,246.8c23.9,2,40.1,3.9,42.4,5.1c0.8,0.5,1,1.4,1,4.5c0,6.8-2.3,21.2-4.3,27.2
	c-0.3,1-1,3.3-1.4,5.1c-1.4,5.2-1.8,6.4-4.6,14.5c-1.5,4.2-3.1,8.1-3.6,8.6c-0.8,0.8-1.4,0.8-4,0.3c-3.2-0.7-4.3-0.9-16.8-3.2
	c-7.7-1.4-20.2-3.3-36.4-5.5c-3.4-0.5-5.8-1.1-6.1-1.6c-0.3-0.5-0.5-13.1-0.5-28.3c0-21.3,0.2-27.5,0.8-27.8
	C1148.7,245.1,1169.6,245.8,1181.2,246.8z M303.5,254.5c4.8,2,8.7,8.5,10.4,17c2.1,10.9,2.1,20.7,0.1,30.6
	c-1.3,6.1-1.7,7.5-4.7,14.8c-1.8,4.7-3.1,7.1-5.6,11.4c-0.4,0.7-1.6,2.6-2.7,4.5c-6.3,10.4-25.6,32.1-28.4,32.1
	c-1.5,0-1.5,0.4-3-10.7c-1.5-11.6-1.5-44.3,0-53.8c3-18,7.8-30.4,14.7-37.9c4-4.3,6.2-5.9,10.8-7.6
	C298.8,253.5,300.8,253.3,303.5,254.5z M916.6,292.8c0.1,11-0.1,18.4-0.5,19.1c-0.5,1.1-4.2,2.1-15.8,4.5
	c-6.2,1.2-22.8,5.1-26.2,5.9c-7,1.9-17.5,4.6-20.5,5.3c-1.8,0.5-5.1,1.4-7.4,2c-2.3,0.7-7.6,2.1-11.9,3.3c-4.2,1.2-9.6,2.9-11.9,3.6
	c-2.3,0.8-5.8,1.8-7.7,2.4c-3.6,1-7.7,2.4-23.2,7.7c-4.6,1.5-9.4,3.1-10.7,3.4c-1.2,0.4-2.6,0.8-3,1.1c-0.3,0.3-3.2,1.4-6.2,2.4
	c-7,2.4-14.8,5.2-16.3,5.9c-0.7,0.3-2,0.8-3,1.1c-1,0.4-3.2,1.2-4.9,1.8c-7.7,3-9.2,3.5-10,3.3c-0.5-0.2-1.8-1.6-3.1-3.1
	c-1.2-1.5-4.9-5.7-8.1-9.3c-5.7-6.2-5.8-6.5-4.8-7.5c1.1-1.1,14.3-7.3,24.4-11.5c2.1-0.8,5.2-2.2,6.8-3c4.8-2.2,22.1-9.5,30.2-12.6
	c2.1-0.8,4.7-1.9,5.6-2.3c1-0.4,4.3-1.8,7.4-3c3.1-1.2,6.3-2.4,7.1-2.8c1.5-0.7,13.4-5.1,23.2-8.6c21.3-7.8,52.4-17.8,74.6-24
	c3.6-1,7.6-2.2,8.9-2.6c1.3-0.5,3.3-0.8,4.5-0.7l2.1,0.1L916.6,292.8z M1039.2,322.1c0,0.7-0.7,2.1-1.4,3.1
	c-4.8,6.5-8.7,18.1-8.7,25.9c0,2.9,1.6,13.2,2.3,15.2c0.3,0.8,0.4,1.7,0.2,2c-0.2,0.3-16.5,0.5-39.4,0.5c-32.2,0-40.9,0.2-50.4,1.1
	c-6.2,0.5-11.8,0.8-12.3,0.7c-0.5-0.2-1-1-1-1.7c-0.1-1.6-0.1-36.7,0-37.6c0.1-1.4,0.4-1.4,22.6-4.3c17.1-2.2,24.3-3,31.2-3.4
	c3-0.2,8.1-0.7,11.6-1c7.9-0.8,22.5-1.4,35.3-1.5C1038.9,320.8,1039.2,320.9,1039.2,322.1z M678.2,338.1c0.1,5.4,0,10.6-0.2,11.7
	c-0.3,1.7-1.4,2.4-22.5,13c-74,37.4-104.3,52.3-105.3,51.8c-0.9-0.3-1.1-1.2-2.1-10.1c-0.5-5.2-0.5-6,0.4-7
	c0.6-0.7,7.2-4.4,14.7-8.4c7.5-4,14.8-7.8,16.1-8.5c2.3-1.2,4.4-2.4,14.3-7.7c2.3-1.2,5.7-3.2,7.6-4.2c1.9-1.1,3.6-2,3.7-2
	c0.2,0,4.6-2.4,9.8-5.4c5.2-3,9.6-5.4,9.8-5.4c0.1,0,1.5-0.8,3.1-1.7c3.2-1.8,8.4-4.8,14.7-8.1c2.3-1.2,5-2.7,5.9-3.3
	c1.8-1.1,2.3-1.4,14.3-7.8c3.9-2.2,8.3-4.6,9.8-5.5c1.5-0.8,3.3-1.5,4.2-1.4l1.5,0.2L678.2,338.1z M534.7,330.4
	c0.2,0.8,0.4,2.6,0.4,4c0,1.5,0.4,6.4,0.9,11c0.8,8,1.9,19.4,3.3,35.3c0.7,7.3,0.7,7.3-0.7,8.7c-1.7,1.7-36.4,19.5-54.6,28.1
	c-3.4,1.6-8.9,4.2-12,5.7c-3.2,1.5-5.9,2.7-6.1,2.7c-0.1,0-3,1.3-6.5,3c-3.4,1.6-7,3.1-7.8,3.3c-0.8,0.2-1.7,0.6-1.9,0.9
	c-0.4,0.8-2.4,0.7-3-0.1c-0.5-0.8-1.2-7.3-2-17.5c-0.3-4.3-0.8-10.3-1.2-13.4c-2.6-24.4-4.2-45.2-3.6-46.4c0.4-0.7,2.8-1.6,6.7-2.6
	c3.4-0.8,7.5-2,9.1-2.4c10.8-3.2,17.1-5,20.5-5.9c2.1-0.5,5.4-1.5,7.1-2.1c1.8-0.5,4.8-1.5,6.5-2c1.8-0.5,6.4-1.9,10.1-3
	c3.7-1.1,7.5-2.2,8.3-2.4c4.3-1.1,10.4-2.8,14.9-4.1C532.4,328.6,534.1,328.5,534.7,330.4z M916.1,333.2c1,1.8,0.8,22.2-0.2,23.5
	c-0.8,1-1,1-3.7-0.4c-6.4-3.2-17.2-5.8-24-5.8c-4.2,0-13.8,1.6-18.4,3c-15.9,5-32.8,16.3-41.6,27.9c-4.1,5.4-3.9,5.2-7.3,5.9
	c-1.4,0.3-4.3,1-6.4,1.4c-5.6,1.2-18.9,4.6-29.7,7.5c-2.1,0.5-5.6,1.5-7.7,2.1c-3.4,0.9-6.4,1.8-20.2,5.8c-3.9,1.2-4.5,0.8-5.1-3.2
	c-0.7-5.5-4.2-17.5-5.2-18.2c-0.3-0.2-0.5-1.2-0.5-2.3c0-2.1-1-1.7,13.7-7.1c3.6-1.4,11.2-3.9,23.5-7.9c6.5-2.1,12.4-4,13.1-4.3
	c1.8-0.7,13.3-4.2,16.6-5.1c1.7-0.4,7.3-2,12.5-3.4c16.2-4.6,25-7,25.8-7c0.5,0,2.2-0.4,3.9-0.9c3.3-1,19.1-4.8,22.1-5.3
	c1-0.2,4.3-0.9,7.4-1.5c6.7-1.5,15.5-3.2,22.9-4.5c2.9-0.5,5.4-1.1,5.6-1.2C913.7,331.7,915.5,332.2,916.1,333.2z M704.9,358.6
	c8,4.2,18,11.9,17.2,13.2c-0.4,0.7-3.6,2.2-10.2,4.9c-3.3,1.4-6.7,2.9-7.7,3.3c-1,0.4-4.7,2-8.3,3.5c-5.9,2.4-6.6,2.6-7.3,1.7
	c-0.8-1.1-1.1-22.5-0.3-23.8c0.2-0.4,2.7-1.8,5.5-3.1C699.3,355.6,699.2,355.6,704.9,358.6z M677.9,367.5c0.7,1.9,0.4,21.9-0.4,23
	c-0.4,0.5-3.3,2.1-6.4,3.4c-3.1,1.4-5.9,2.7-6.2,3c-0.4,0.3-1,0.5-1.4,0.5c-0.4,0-4,1.5-8,3.3c-4,1.8-7.8,3.5-8.5,3.8
	c-0.7,0.3-3.3,1.5-5.8,2.6c-2.6,1.2-5,2.1-5.4,2.1c-0.4,0-1.2,0.4-1.8,0.8c-0.7,0.5-7,3.3-14,6.3c-7,3-13.3,5.8-13.9,6.1
	c-0.6,0.3-3.2,1.5-5.6,2.6c-2.5,1.1-5.7,2.5-7.2,3.2c-1.5,0.7-8.7,3.8-16.1,7c-7.4,3.2-13.9,5.9-14.6,6.2c-3.8,1.7-8.7,3.6-9.5,3.6
	c-1.1,0-1.4-1.1-2.1-9.5c-0.4-4.3-0.4-7.1,0-7.8c0.3-0.6,2.3-1.9,4.3-2.9c4-2,12-5.6,18.6-8.7c2.3-1.1,8.4-4,13.6-6.5
	c5.1-2.5,13.4-6.5,18.4-8.9c4.9-2.4,14.4-7,20.9-10.2c14-6.8,44.3-21.6,47.3-23C676.8,366.4,677.5,366.3,677.9,367.5z M733.2,385.4
	c2.1,2.3,6.6,14.8,7.3,19.9l0.4,3.4l-2.3,1c-1.3,0.5-6.2,2.3-10.9,3.9c-4.8,1.6-12.9,4.4-18.1,6.2c-20.3,7.1-20.1,7-21,5.8
	c-0.6-0.8-0.7-3.7-0.6-12.5c0.2-13.4-1-11.5,9.7-15.7c3.9-1.6,7.7-3.2,8.3-3.4c4.5-2,24-9.5,25-9.5
	C731.6,384.4,732.6,384.9,733.2,385.4z M541,402.7c0,0.6,0.4,3.9,0.9,7.4c0.4,3.5,0.7,7,0.5,7.7c-0.3,1.2-3.2,2.8-15.3,8.3
	c-2,0.9-5.1,2.3-6.8,3.2c-11.2,5.2-19.1,8.7-19.5,8.7c-0.2,0-1.2,0.4-2.2,1c-1.8,1-10.3,4.5-22.6,9.5c-3.6,1.5-7.1,2.9-7.7,3.2
	c-3.6,1.7-17.1,6.5-18.1,6.5c-1.4,0-1.9-2.4-2-9.2l-0.1-4l2.1-1.1c1.1-0.6,7.2-3.3,13.4-5.9c6.2-2.7,13-5.6,15.2-6.7
	c2.1-1,5.8-2.6,8-3.7c8.3-3.7,24-11.4,38-18.5c7.9-4,14.8-7.3,15.4-7.3C540.6,401.7,541,402.1,541,402.7z M817.5,411.8
	c0.5,8,2.4,13.4,6.6,18.4c1.6,1.9,3.1,3.5,3.3,3.5c0.2,0,0.8,0.5,1.1,1.2c1.1,1.6-0.2,2.2-6.7,3c-2.9,0.3-7.5,1-10.3,1.5
	c-2.8,0.5-7.7,1.3-11,1.8c-6.8,1.1-16.6,2.9-22.6,4.1c-2.3,0.5-7.5,1.5-11.6,2.4c-4.1,0.8-10.1,2.1-13.3,3c-3.2,0.8-6.1,1.3-6.4,1.1
	c-0.8-0.5-0.4-2.7,1.5-9.5c0.8-2.9,2.1-8.7,2.8-12.8c0.8-4.1,1.6-7.8,2-8.1c0.4-0.4,3.2-1.4,6.3-2.3c3.1-0.8,7-1.9,8.6-2.4
	c7.7-2.1,25-6.4,34.5-8.6c3-0.7,7-1.6,8.9-2.1C817.2,404.8,817.1,404.6,817.5,411.8z M677.9,407.1c0.7,2.7,0.4,22.2-0.4,23.2
	c-0.4,0.5-2.6,1.7-4.9,2.6c-2.3,0.8-5.1,2-6.2,2.4c-1.1,0.5-4.1,1.5-6.5,2.4c-2.4,0.9-5.4,2-6.5,2.4c-26.8,10.2-27.3,10.4-43.4,16.3
	c-3.7,1.4-8,3-9.5,3.6c-1.5,0.6-3.7,1.5-5.1,2c-1.3,0.5-3.4,1.3-4.8,1.8c-1.3,0.5-4.2,1.6-6.5,2.5c-2.3,0.8-4.7,1.8-5.4,2
	c-0.7,0.2-2.9,1.1-5.1,1.8c-2.1,0.8-5.6,2-7.7,2.8c-6.7,2.6-10.6,3.8-11.8,3.8c-1.1,0-1.1-0.5-0.9-9.3c0.2-8,0.4-9.5,1.2-10
	c0.5-0.3,4.1-1.8,7.8-3.3c14.5-5.8,34.1-14,52.6-21.9c5.2-2.2,14.1-5.9,19.6-8.3c5.6-2.4,10.9-4.6,11.9-5.1c1.7-0.8,9.3-3.9,22-9.2
	c3.3-1.3,6.5-2.7,7.1-3C677.4,405.6,677.5,405.7,677.9,407.1z M741.3,427.3c0,2.3-1.5,11.1-2.7,15c-2.7,9.7-3.4,11.7-4.8,12.5
	c-0.8,0.5-5,1.8-9.3,3c-4.3,1.1-9.7,2.6-12.1,3.2c-2.3,0.7-4.8,1.4-5.6,1.6c-0.8,0.2-3.7,1-6.5,1.8c-11.3,3.3-10.9,3.2-11.7,2.1
	c-0.5-0.7-0.8-4.2-0.8-12.1c0-9.7,0.1-11.2,1.1-12.3c1-1.2,7.8-3.6,34-12c7.4-2.3,13.7-4.3,14-4.5c0.4-0.1,1.5-0.2,2.6-0.2
	C741.2,425.4,741.3,425.6,741.3,427.3z M266,429.4c0.4,3.4,2.2,17.1,3.3,24.7c1,6.8,1.2,6.5-7.7,10c-12,4.8-23.1,14.3-29.7,25.6
	c-1.7,3-3.2,5.4-3.2,5.4c-0.2,0.1-15.2,1.8-19.2,2.1c-6,0.5-6.2,0.2-4-5.4c3.5-8.8,11.1-20.2,20.7-31.2
	c9.2-10.5,35.7-34.5,38.2-34.5C265.5,426,265.7,426.5,266,429.4z M544,433.4c0.3,1,0.7,4.6,0.9,8c0.5,8.6,0.5,8.6-9.5,8.7h-7.3
	l-5.2,2.6c-3.6,1.8-6.2,3.6-8.9,6.2c-2.1,2-4.5,4-5.5,4.5c-4.8,2.1-38.2,14.3-43.1,15.6c-1.1,0.4-2.6,0.8-3.3,1.1
	c-3.1,1.3-9.7,3.1-10.5,2.8c-0.9-0.3-1.7-5.4-1.7-10.9c0-2.9,0.5-3.3,7.8-5.9c2.4-0.8,5.3-1.8,6.4-2.3c1.1-0.4,5.9-2.3,10.7-4.2
	c4.8-1.8,12.2-4.9,16.6-6.7c4.4-1.8,10.2-4.2,12.9-5.3c2.7-1.1,5.4-2.3,5.9-2.6c0.6-0.4,2.7-1.2,4.6-2.1c2-0.8,5.3-2.3,7.4-3.2
	c12.2-5.6,18.8-8.4,19.9-8.3C543.1,431.6,543.8,432.3,544,433.4z M677.9,447c0.2,0.8,0.4,6.2,0.4,12.1c0,7.9-0.2,10.9-0.7,11.4
	c-1,0.7-4.2,2-9.7,3.6c-4.5,1.3-14.1,4.2-20.5,6.2c-2.1,0.7-5.4,1.7-7.1,2.3c-1.8,0.6-6.1,1.9-9.5,3c-3.4,1-7.7,2.3-9.5,2.9
	c-1.8,0.6-4.6,1.5-6.2,2c-1.6,0.5-5.9,1.8-9.5,3c-3.6,1.1-8.1,2.6-10.1,3.1c-2,0.6-6.4,2-9.8,3c-3.4,1.1-8.6,2.7-11.6,3.5
	c-2.9,0.9-6,1.8-6.8,2.1c-0.8,0.3-3.5,1.1-5.9,1.8c-2.4,0.7-7.4,2.1-11,3.3c-3.6,1.1-7.1,2.1-7.7,2.3c-0.7,0.2-3.6,1-6.5,1.9
	c-6.6,2-11.2,3.3-14,3.9c-1.1,0.3-4.6,1.2-7.7,2.1c-5.5,1.5-9.5,2.6-16.1,4.2c-1.8,0.4-5.5,1.4-8.3,2.1c-2.8,0.7-6.8,1.6-8.9,2.1
	c-2.1,0.5-5.7,1.3-8,1.8c-8.3,1.9-14.9,3.3-19,4.1c-2.3,0.5-7.6,1.5-11.8,2.4c-4.2,0.9-9.2,1.8-11,2.1c-5.5,0.9-11.3,1.8-17.9,3
	c-9.6,1.7-17.8,2.9-41.9,5.9c-8.6,1.1-14.1,1.5-16.2,1.3c-0.4,0-0.8-0.6-0.8-1.2c0-2.4,2-8.9,3-9.8c0.7-0.6,3.4-1.2,7.5-1.8
	c9-1.2,17.2-2.4,24.9-3.9c20.6-3.8,22-4,23.2-2.9c0.6,0.5,2.8,0.8,6.4,0.8c7,0,9.7-1,17.4-5.9c2.3-1.5,5.1-2.4,11.9-4.1
	c4.9-1.1,10.4-2.5,12.2-3c7.7-2,12.8-3.4,22-6c5.4-1.5,11.2-3.1,12.8-3.5c2.9-0.8,4.9-1.4,13.1-3.9c7.2-2.2,10.6-2.9,14-2.9
	c5.6,0,10.4-1.7,16.1-5.6c3-2.1,2.9-2,18.1-7.2c6.2-2.1,13.7-4.6,16.6-5.6c11.6-4,32.3-11.4,35.1-12.4c1.7-0.7,6.8-2.6,11.6-4.2
	c4.8-1.7,9.6-3.4,10.7-3.9c1.1-0.4,4.5-1.7,7.4-2.7c3-1.1,9.1-3.3,13.7-4.9c10.8-3.9,24.8-8.7,25.3-8.8
	C677.4,445.7,677.7,446.2,677.9,447z M440.5,449.1c0.3,0.5,0.7,3.4,1,6.4c0.4,4.6,0.3,5.5-0.5,6.2c-0.9,0.8-14.7,5.8-20.6,7.5
	c-1.5,0.4-5.8,1.8-9.5,3.1c-7.8,2.7-18,5.9-22.3,7c-1.6,0.4-4.8,1.4-7.1,2.1c-5,1.5-7.6,2.3-18.1,4.9c-4.4,1.1-8.7,2.3-9.5,2.7
	c-0.8,0.3-2.9,0.7-4.5,1l-3.1,0.4l-3.2-3.6c-4.5-5.2-4.9-4.9,11.7-9.5c4.9-1.4,10-2.9,11.3-3.3c1.3-0.5,5.6-1.8,9.5-3
	c6.7-2.1,17.8-5.7,24.4-8c5.1-1.8,30.1-11.1,34.8-13C439.9,447.7,439.7,447.8,440.5,449.1z M71.8,470.2c5.6,2.7,10.2,10,12.6,19.6
	c1.7,6.7,1.7,6.7-7.7,6.1c-8.4-0.5-9.3-0.9-11-5.2c-0.7-1.8-1.8-3.1-4.1-4.6c-4.5-3.1-7.3-3.7-11-2.6c-1.7,0.5-3.2,1.2-3.4,1.5
	c-0.2,0.4-1.1,0.6-2.1,0.6c-1.5,0-1.7-0.2-1.7-1.8c0-5.8,8.5-13.4,16.6-14.8C63.9,468.1,68.8,468.7,71.8,470.2z M442.5,472.9
	c0.2,0.3,0.5,2.2,0.8,4.2l0.4,3.7l-2-0.4c-1.1-0.2-3.2-0.6-4.7-1c-9.6-2.5-22.4,3.7-30.3,14.9c-1.8,2.5-2.1,2.7-8,4.3
	c-7.1,2-8.8,2.4-14.4,3.6c-10.6,2.4-18,4.1-19.9,4.6c-1.1,0.3-3.8,0.7-5.9,0.9c-3.5,0.4-3.9,0.3-4.6-0.8c-1.1-1.8-2.5-6.1-2.5-7.6
	c0-1.3,0.2-1.4,4.2-2.1c2.4-0.5,24.7-6.2,32.7-8.5c11.2-3.2,27.5-8,28.8-8.6c1.5-0.6,6.5-2.3,8.9-3c1-0.2,4.5-1.4,7.7-2.6
	C439.9,472.4,442,472,442.5,472.9z M504.2,482.9c0.2,3,0.7,5.9,1.1,6.4c0.4,0.5,0.7,1.6,0.5,2.5c-0.2,1.8-1.7,2.5-8.8,4.6
	c-1.8,0.5-5.4,1.6-8,2.4c-2.6,0.8-6.8,2.1-9.2,2.7c-2.4,0.7-6.3,1.8-8.6,2.4c-5.2,1.5-9.7,2.7-14.3,3.9c-2,0.5-4.2,1-4.9,1.2
	c-2.7,0.7-3.2,0-2.3-3c0.4-1.5,1-4.5,1.2-6.7c0.2-2.5,0.8-4.3,1.4-4.9c0.6-0.6,3.6-1.8,6.6-2.7c3.1-1,14-4.6,24.3-8
	c10.3-3.5,19.1-6.3,19.6-6.2C503.6,477.5,503.9,478.7,504.2,482.9z M297.8,494.9c2.5,0.6,5.4,1.5,6.5,2.1c1.7,0.8,1.8,1.1,1.2,1.8
	c-0.9,0.8-6.8,2-12.7,2.5c-2.6,0.2-3.6,0.1-4-0.5c-0.6-1-0.7-6.1-0.1-6.7C289.5,493.5,293.3,493.8,297.8,494.9z M275,499.5
	c0.2,1.5,0.2,3,0.1,3.5c-0.4,1.1-3.6,2-9.7,2.7c-5.1,0.7-6.4,0.2-4.9-1.5c1.1-1.4,8.6-6.2,10.6-6.8
	C274.2,496.4,274.5,496.6,275,499.5z M75.5,500.9c2.4,0.3,5.7,0.7,7.3,1c2.2,0.2,2.8,0.5,2.8,1.4c0,1.8-1.5,2.6-4,2.2
	c-2-0.4-14.9-2.1-15.4-2.1c-0.1,0-0.2-0.7-0.2-1.5c0-1.4,0.2-1.5,2.6-1.5C69.9,500.3,73.1,500.6,75.5,500.9z M225.7,505.6
	c-0.6,4.3,0.3,4-18.6,5.1c-5.1,0.2-5.5,0.2-6.1-1c-0.8-1.5-0.2-4.5,1.1-5.2c0.5-0.3,4.6-0.7,9-1c4.4-0.2,9.1-0.6,10.4-0.8
	C225.5,502.1,226.1,502.5,225.7,505.6z M127.8,505.1c5.1,0.3,15.1,0.5,22.3,0.6c7.2,0,13.7,0.2,14.4,0.4c1,0.3,1.3,0.8,1.3,2.3
	c0,3.4-0.4,3.5-15.3,2.7c-26.4-1.4-35.8-2.1-44.5-3.4c-2-0.3-2.3-1-1.5-3c0.4-0.9,1.1-1,7.3-0.6
	C115.5,504.4,122.8,504.8,127.8,505.1z M320.2,507.9c3.3,3.4,4,4.8,3.2,5.8c-0.7,0.9-6.3,2-18.5,3.6c-10.9,1.5-13,1.5-13.6,0.4
	c-0.8-1.5-1.3-6.2-0.8-7.1c0.5-0.8,5.5-2,13.5-3.2c2.6-0.4,5.8-0.9,7.1-1.1C316.6,505.3,318,505.5,320.2,507.9z M66,508.1
	c1.8,0.3,6.4,1,10.1,1.5c6.8,0.9,8.3,1.4,8.3,3c0,1.8-2.4,2-10.4,0.6c-14.3-2.5-16.8-3-17.8-3.7c-1.1-0.8-1.1-0.8,0.3-1.4
	C58.3,507.4,61.8,507.4,66,508.1z M401.3,510.5c0,1.2,0.3,3.7,0.7,5.3c0.4,2,0.4,3.3,0.1,4c-0.6,1.1-4.8,2.6-7.2,2.6
	c-0.8,0-3.2,0.4-5.4,0.8c-3.8,0.8-8.1,1.7-19.4,3.7c-2.9,0.5-7,1.1-9,1.2c-3.2,0.3-3.7,0.2-4-0.8c-0.5-1.9-0.6-9.2,0-9.7
	c0.5-0.5,3-1.1,17.2-3.9c9.4-1.9,23.1-5.1,23.4-5.4c0.1-0.1,1-0.2,2-0.2C401.2,508.1,401.3,508.3,401.3,510.5z M276.7,513.5
	c1,5,1,5.8-0.2,6.4c-1.5,0.8-14,2.3-21.7,2.5c-5.1,0.2-5.9,0.1-6.5-0.9c-0.9-1.4,1.5-6.1,3.7-6.9c0.9-0.3,4-0.8,7-1
	c3-0.2,6.3-0.6,7.4-0.9c1.1-0.2,3.8-0.5,6-0.5C276.1,512.2,276.4,512.4,276.7,513.5z M111.8,514c14.9,1.5,18.7,1.8,35.4,2.7
	c9.8,0.6,18.2,1.3,18.6,1.6c1.2,1,0.9,4-0.4,4.5c-2.3,0.8-33-1.6-48.5-3.8c-3.3-0.5-7.1-0.8-8.6-0.9c-5.2-0.1-7.7-1.7-6.1-3.7
	C103.1,513.3,104,513.2,111.8,514z M224.4,517.7c1.1,1.5,1.2,3.6,0.4,5.3c-0.6,1.1-1.4,1.1-12.5,1.1c-11.1,0-11.9-0.1-12.5-1.1
	c-0.8-1.6-0.8-4,0.2-4.6c0.5-0.4,10.6-1.2,21.9-1.8C222.9,516.5,223.8,516.9,224.4,517.7z M106.7,523.5c13.7,2,52.6,5.9,60.2,6
	c0.4,0,1,1,1.4,2.1c1.2,3.6,0.5,3.9-8.6,3.2c-4.2-0.3-9.5-0.8-11.6-1.1c-2.1-0.3-5.6-0.7-7.7-0.9c-2.1-0.2-5.4-0.7-7.4-1
	c-1.9-0.4-6.3-1-9.8-1.5c-22.1-3.1-23.7-3.4-24.8-4.5c-0.8-0.8-0.8-1.1,0.4-2.3c0.8-0.8,1.7-1.2,2.6-1
	C102,522.7,104.5,523.1,106.7,523.5z M329.2,522.8c1.8,1.1,3.4,8.4,2,9.3c-0.7,0.5-8.7,1.4-19.7,2.4c-5.1,0.4-11.2,1-13.5,1.2
	c-5.1,0.5-5.2,0.4-5.2-5.4v-3.6l2.4-0.4c1.3-0.2,6.1-0.8,10.7-1.4c4.6-0.5,10.6-1.3,13.4-1.8C325.2,522.3,328.2,522.2,329.2,522.8z
	 M278.5,528.9c0.2,0.4,0.5,2.1,0.7,3.8c0.3,2.8,0.2,3.3-0.9,3.9c-0.7,0.4-7.8,1-15.9,1.4c-13,0.6-14.7,0.6-15.5-0.2
	c-1.2-1.2-1.8-5.6-0.9-6.6c0.4-0.5,2.9-1,7.3-1.3c3.7-0.2,9.2-0.7,12.1-0.9C273.9,528.2,278.1,528.2,278.5,528.9z M227.4,533.6
	c1.7,4.9,1.5,4.9-12.2,4.6c-7.3-0.2-12.1-0.5-13-1c-1.5-0.8-2.2-3-1.7-5.1l0.4-1.5h12.7h12.7L227.4,533.6z M113.5,534.6
	c3.1,0.5,8.3,1.2,11.6,1.7c14.1,2,19.3,2.7,23.2,3.3c2.3,0.3,7.3,0.9,11.2,1.2c8.3,0.7,11.7,1.4,12.4,2.5c0.3,0.4,0.5,1.7,0.5,2.7
	c0,1.8-0.2,2-1.8,2c-3.3,0-21.6-2.5-35.4-4.9c-5.9-1-12.3-2-14.3-2.3c-2-0.3-4.8-0.8-6.2-1.1c-1.5-0.4-6.8-1.4-11.8-2.4
	c-5.1-1-9.5-2.1-10-2.4c-1.1-0.9,0-2.8,1.7-3c0.8-0.1,4,0.3,7.3,0.9C105.2,533.2,110.5,534.1,113.5,534.6z M332.6,541.4
	c0.2,0.4,0.1,2.6-0.3,4.8c-0.7,4-0.8,4.3-2.8,5.1c-1.4,0.6-6.7,1.1-17.5,1.5c-14.8,0.6-15.6,0.6-16.3-0.4c-0.9-1.3-1.1-7.8-0.2-8.3
	c0.4-0.2,5.8-0.8,12.1-1.2c6.3-0.5,12.9-1.1,14.7-1.4C327,540.7,332.2,540.7,332.6,541.4z M230.5,545.3c1.4,0.2,2.4,1,4,3.2
	c2.4,3.2,2.6,3.9,1.2,4.5c-1,0.4-24.5-0.7-26-1.1c-0.4-0.1-1.5-0.4-2.4-0.6c-2.5-0.6-4.6-6-2.4-6.4
	C206.4,544.5,228.3,544.9,230.5,545.3z M280.8,545.9c0.2,0.6,0.5,2.3,0.7,3.9c0.4,2.4,0.2,2.9-0.8,3.4c-1.7,0.9-25.1,0.9-27.1-0.1
	c-2.8-1.2-5.2-7-3.2-7.8c0.4-0.2,7.3-0.4,15.4-0.4C279.3,544.9,280.5,545,280.8,545.9z M229.2,559.8c17.4,1.1,16.5,0.9,22.2,4.2
	c2.9,1.6,5.8,3.1,6.7,3.3c0.8,0.2,1.8,0.5,2.1,0.8c1.2,0.9,9.2,2.9,10.4,2.6c0.7-0.2,1.2-0.8,1.2-1.6c0-1.1-0.8-1.7-4.1-3.3
	c-4.2-2-5.9-3.3-5.2-4.1c0.6-0.5,19.6-0.2,20.2,0.5c0.7,0.7,1.4,4.6,2.5,13.7c0.5,4.1,1,8.4,1.2,9.6c0.5,3.2-1,3.9-9.7,4.6
	c-22.2,2-42.8-5.2-57.5-19.9c-5.5-5.5-8.3-9.4-7.8-10.8c0.3-0.8,1-0.9,4.4-0.6C217.9,559,223.9,559.4,229.2,559.8z M327,561.3
	c0,1.4-4.2,7.3-7.8,10.9c-5.4,5.4-17,12.4-18.9,11.4c-1.6-0.8-4-20.7-2.7-22c0.3-0.3,4.7-0.7,9.7-0.8c5.1-0.1,11.5-0.2,14.4-0.3
	C326.1,560.4,327,560.5,327,561.3z M104.8,458.5c-4.9,2.1-5.1,11-0.3,15.2c2,1.7,2.4,1.8,5.8,1.5c2.2-0.1,4-0.6,4.5-1.1
	c4.2-4.4,4.7-8.1,1.6-12c-2-2.6-5.8-4.6-8.2-4.6C107.4,457.6,105.9,458,104.8,458.5z"/>
</svg>
